<svg xmlns="http://www.w3.org/2000/svg" viewBox="0 0 397.83 623.75"><defs><style>.cls-1{fill:none;stroke:#000;stroke-miterlimit:10;}</style></defs><title>aline</title><g id="Layer_2" data-name="Layer 2"><g id="Layer_1-2" data-name="Layer 1"><path d="M68.88,3a1.5,1.5,0,0,0,0-3,1.5,1.5,0,0,0,0,3Z"/><path d="M279.14,3.69C284.37,84.91,289,166.21,295,247.38c5.33,71.17,13.24,142.93,34.53,211.33,11.72,37.63,27.64,73.94,48.77,107.26,1,1.63,3.63.12,2.59-1.52-38.14-60.15-58.33-129.17-69.76-199-12-73.16-15.22-147.52-20-221.4l-9-140.37c-.13-1.92-3.13-1.93-3,0Z"/><path d="M61.27,1.82c8.65,76.74,1.25,153.91-7.79,230.25C48.92,270.67,43.94,309.24,40.4,348c-3.51,38.31-4.58,76.45-4.78,114.9-.12,21.82-1.2,43.82-7.79,64.79-6.32,20.1-16.78,38.54-27.61,56.51-1,1.65,1.6,3.16,2.6,1.51,9.26-15.37,18.18-31,24.62-47.85,6.66-17.37,9.67-35.56,10.65-54.08,1-19.34.29-38.72.68-58.07.4-19.54,1.48-39.06,3-58.54C47.85,289.08,61,211.73,66.11,133.58,69,89.69,69.2,45.58,64.27,1.82c-.21-1.89-3.22-1.91-3,0Z"/><path d="M2.91,579.44C2.28,589,1.63,598.5,1,608c-.35,5.57-.15,11.44,5.68,14,6.44,2.8,15.41,1.45,22.21,1.3,9.27-.2,18.52-.79,27.76-1.63,37.09-3.37,73.66-10.82,110.71-14.47,38.42-3.79,77.11-3.26,115.62-1.35,18.88.93,37.72,2.4,56.59,3.43,15.05.83,31.74.59,44.35-8.84,10.73-8,17.51-21.88,11.79-34.91s-20.38-19.36-32.7-24.3c-1.8-.72-2.58,2.18-.8,2.89,11.23,4.5,24.7,10.25,30.37,21.75,6.79,13.79-2.85,28.6-15.14,35.15-13.91,7.42-30.85,5.76-46,4.75-17.13-1.14-34.27-2.25-51.43-3.07-33.92-1.62-68-2.11-101.86.54-33.07,2.59-65.71,8.69-98.59,12.89a469.07,469.07,0,0,1-54.51,4.23,107.77,107.77,0,0,1-13.45-.23c-6.46-.76-8-5.41-7.67-11.11.53-9.86,1.29-19.72,1.94-29.58.12-1.93-2.88-1.92-3,0Z"/><line class="cls-1" x1="62.38" y1="2" x2="281.38" y2="2"/></g></g></svg>