<svg xmlns="http://www.w3.org/2000/svg" viewBox="0 0 359.53 614.96"><defs><style>.cls-1{fill:none;stroke:#000;stroke-miterlimit:10;}</style></defs><title>asym</title><g id="Layer_2" data-name="Layer 2"><g id="Layer_1-2" data-name="Layer 1"><path class="cls-1" d="M61.11.5c29.8,94,26.32,165,18,212-10,56.66-28.1,83.74-55,191C3.91,484-6,524.75,5.11,546.5c43.94,86.27,289.66,94.15,344,2,38-64.4-43.45-133.7-70-334a876.71,876.71,0,0,1-2-212"/><path class="cls-1" d="M5.11,546.5q33.86-142.38,66-142,19.31.22,38,52c-3.31-68.34,30.38-115.18,56-116,25-.8,59.94,41.65,64,106,7.24-12.7,25.82-41.28,50-42,32.32-1,71.29,47.95,77,127"/><line class="cls-1" x1="61.11" y1="0.5" x2="277.11" y2="2.5"/></g></g></svg>