<svg id="Layer_1" data-name="Layer 1" xmlns="http://www.w3.org/2000/svg" viewBox="0 0 1147.34 1121.57"><defs><style>.cls-1{fill:none;stroke:#000;stroke-miterlimit:10;}</style></defs><title>dress sketches</title><path d="M492.45,512.68a1.5,1.5,0,0,0,0-3,1.5,1.5,0,0,0,0,3Z" transform="translate(-262.61 -509.68)"/><path class="cls-1" d="M574.5,713.5q-.5,76-1,152" transform="translate(-262.61 -509.68)"/><line class="cls-1" x1="310.87" y1="353.82" x2="527.91" y2="353.82"/><line class="cls-1" x1="526.89" y1="213.82" x2="526.89" y2="351.82"/><path class="cls-1" d="M1078.5,859.5a370.4,370.4,0,0,1-40-97c-17.19-68.09-9.62-122.32-20-124-14.79-2.4-32.06,107.56-62,108-30.17.44-51.57-110.65-64-108-9.28,2,3.37,63.72-10,146a470.62,470.62,0,0,1-20,79" transform="translate(-262.61 -509.68)"/><line class="cls-1" x1="599.87" y1="351.82" x2="816.91" y2="351.82"/><path class="cls-1" d="M501,646.5c-6.1-2.35-31.64-11.37-60.5,0a83.58,83.58,0,0,0-39,32c-4.76-7.52-19.35-28.39-47-38-18.88-6.56-54.5-11.58-69,6-16.39,19.88,8.75,51,15,106,5.15,45.27-5,84.59-16,113" transform="translate(-262.61 -509.68)"/><line class="cls-1" x1="21.87" y1="353.82" x2="238.91" y2="353.82"/><path class="cls-1" d="M500.5,648a373.93,373.93,0,0,0-4.88,199.35q2.44,8.82,4.88,17.65" transform="translate(-262.61 -509.68)"/><path class="cls-1" d="M386.5,678.5" transform="translate(-262.61 -509.68)"/><line class="cls-1" x1="391.89" y1="137.82" x2="310.89" y2="203.82"/><line class="cls-1" x1="391.89" y1="137.82" x2="391.9" y2="137.82"/><line class="cls-1" x1="384.39" y1="137.82" x2="456.39" y2="137.82"/><line class="cls-1" x1="526.89" y1="213.82" x2="455.89" y2="137.82"/><path class="cls-1" d="M268.5,1544.5c-27.92-51.14,62.42-103.67,48-226-3.14-26.66-14.2-81.58-30-136-9.25-31.86-17.76-55.39-18-90-.25-35.57,8.36-64.85,16-84.5h217a238.24,238.24,0,0,1,17,74.5c2.37,39.12-6,67.73-14,98-18.37,69.38-29.86,112.75-33,146-10.95,115.85,74.49,161,49,212C487.41,1604.64,303.41,1608.44,268.5,1544.5Z" transform="translate(-262.61 -509.68)"/><path class="cls-1" d="M646.5,1004.5c29.8,94,26.32,165,18,212-10,56.66-28.1,83.74-55,191-20.2,80.54-30.08,121.25-19,143,43.94,86.27,289.66,94.15,344,2,38-64.4-43.45-133.7-70-334a876.71,876.71,0,0,1-2-212" transform="translate(-262.61 -509.68)"/><path class="cls-1" d="M590.5,1550.5q33.86-142.38,66-142,19.31.23,38,52c-3.31-68.34,30.38-115.18,56-116,25-.8,59.94,41.65,64,106,7.24-12.7,25.81-41.28,50-42,32.32-1,71.29,48,77,127" transform="translate(-262.61 -509.68)"/><path d="M1081,1010.5a1.5,1.5,0,0,0,0-3,1.5,1.5,0,0,0,0,3Z" transform="translate(-262.61 -509.68)"/><path d="M1291.26,1011.19c5.23,81.22,9.82,162.52,15.89,243.69,5.33,71.17,13.24,142.93,34.53,211.33,11.72,37.63,27.64,73.94,48.77,107.26,1,1.63,3.63.12,2.59-1.52-38.14-60.15-58.33-129.17-69.75-199-12-73.16-15.23-147.52-20-221.4l-9-140.37c-.13-1.92-3.13-1.93-3,0Z" transform="translate(-262.61 -509.68)"/><path d="M1073.39,1009.32c8.65,76.74,1.25,153.91-7.79,230.25-4.56,38.6-9.54,77.17-13.08,115.89-3.51,38.31-4.58,76.45-4.78,114.9-.12,21.82-1.2,43.82-7.79,64.79-6.32,20.1-16.78,38.54-27.6,56.51-1,1.65,1.59,3.16,2.59,1.51,9.26-15.37,18.18-31.05,24.62-47.85,6.66-17.37,9.67-35.56,10.65-54.08,1-19.34.29-38.72.68-58.07.4-19.54,1.48-39.06,3-58.54,6.08-78.05,19.22-155.4,24.34-233.55,2.88-43.89,3.09-88-1.84-131.76-.21-1.89-3.22-1.91-3,0Z" transform="translate(-262.61 -509.68)"/><path d="M1015,1586.94c-.63,9.53-1.28,19.06-1.87,28.6-.35,5.57-.15,11.44,5.68,14,6.44,2.8,15.41,1.45,22.21,1.3,9.27-.2,18.52-.79,27.76-1.63,37.09-3.37,73.66-10.82,110.71-14.47,38.42-3.79,77.11-3.26,115.62-1.35,18.88.93,37.72,2.4,56.59,3.43,15,.83,31.74.59,44.35-8.84,10.73-8,17.51-21.88,11.79-34.91s-20.38-19.36-32.7-24.3c-1.8-.72-2.57,2.18-.8,2.89,11.23,4.5,24.7,10.25,30.37,21.75,6.79,13.79-2.85,28.6-15.14,35.15-13.91,7.42-30.85,5.76-46,4.75-17.14-1.14-34.28-2.25-51.44-3.07-33.92-1.62-68-2.11-101.86.54-33.07,2.59-65.71,8.69-98.59,12.89a469.07,469.07,0,0,1-54.51,4.23,107.77,107.77,0,0,1-13.45-.23c-6.46-.76-8-5.41-7.67-11.11.53-9.86,1.29-19.72,1.94-29.58.12-1.93-2.88-1.92-3,0Z" transform="translate(-262.61 -509.68)"/><line class="cls-1" x1="811.89" y1="499.82" x2="1030.89" y2="499.82"/><line class="cls-1" x1="383.89" y1="494.82" x2="599.89" y2="496.82"/></svg>